G04 (created by PCBNEW (2013-07-07 BZR 4022)-stable) date 17/05/2017 16:52:46*
%MOIN*%
G04 Gerber Fmt 3.4, Leading zero omitted, Abs format*
%FSLAX34Y34*%
G01*
G70*
G90*
G04 APERTURE LIST*
%ADD10C,0.00590551*%
%ADD11C,0.07*%
%ADD12C,0.03*%
%ADD13C,0.04*%
%ADD14C,0.03*%
G04 APERTURE END LIST*
G54D10*
G54D11*
X55000Y-39000D03*
X55000Y-45000D03*
X55000Y-46000D03*
X55000Y-47000D03*
X55000Y-49000D03*
X55000Y-50000D03*
X55000Y-40000D03*
X74000Y-50000D03*
X74000Y-49000D03*
X74000Y-48000D03*
X74000Y-47000D03*
X74000Y-46000D03*
X74000Y-45000D03*
X74000Y-44000D03*
X74000Y-43000D03*
X74000Y-41500D03*
X74000Y-40500D03*
X74000Y-37500D03*
X74000Y-36500D03*
X63000Y-36000D03*
X66000Y-36000D03*
X63000Y-37000D03*
X63000Y-38000D03*
X63000Y-39000D03*
X63000Y-40000D03*
X63000Y-41000D03*
X63000Y-42000D03*
X66000Y-37000D03*
X66000Y-38000D03*
X66000Y-39000D03*
X66000Y-40000D03*
X66000Y-41000D03*
X66000Y-42000D03*
X63000Y-44000D03*
X63000Y-45000D03*
X63000Y-46000D03*
X66000Y-44000D03*
X66000Y-45000D03*
X66000Y-46000D03*
X66000Y-47000D03*
X59000Y-51000D03*
X60000Y-51000D03*
X62000Y-51000D03*
X63000Y-51000D03*
X64000Y-51000D03*
X65000Y-51000D03*
X70000Y-51000D03*
X72000Y-41000D03*
X72000Y-48000D03*
X72000Y-47000D03*
X72000Y-46000D03*
X72000Y-45000D03*
X72000Y-44000D03*
X72000Y-43000D03*
X72000Y-42000D03*
X57500Y-39000D03*
X59000Y-44000D03*
X62000Y-44000D03*
X62000Y-46000D03*
X58000Y-46000D03*
X60500Y-39000D03*
X62000Y-42000D03*
X59000Y-42000D03*
X67000Y-46000D03*
X67000Y-45000D03*
X67000Y-47000D03*
X60000Y-49000D03*
X64000Y-49000D03*
X67000Y-44000D03*
X69500Y-44000D03*
X66500Y-48500D03*
X70000Y-48500D03*
X67500Y-39000D03*
G54D12*
X63000Y-47000D03*
G54D13*
X55000Y-41000D03*
X69000Y-51000D03*
X71000Y-51000D03*
G54D12*
X67500Y-37000D03*
X70500Y-47000D03*
G54D14*
X66000Y-39000D02*
X67500Y-39000D01*
X65000Y-34000D02*
X57500Y-34000D01*
X54500Y-50000D02*
X53500Y-49000D01*
X66000Y-36000D02*
X66000Y-35000D01*
X65000Y-34000D02*
X66000Y-35000D01*
X54500Y-50000D02*
X55000Y-50000D01*
X53500Y-38000D02*
X53500Y-49000D01*
X57500Y-34000D02*
X53500Y-38000D01*
X63500Y-35000D02*
X57500Y-35000D01*
X66000Y-41000D02*
X65500Y-41000D01*
X65000Y-40500D02*
X65500Y-41000D01*
X65000Y-36500D02*
X65000Y-40500D01*
X63500Y-35000D02*
X65000Y-36500D01*
X54500Y-49000D02*
X54000Y-48500D01*
X54500Y-49000D02*
X55000Y-49000D01*
X54000Y-38500D02*
X54000Y-48500D01*
X57500Y-35000D02*
X54000Y-38500D01*
X74000Y-36500D02*
X71500Y-36500D01*
X70500Y-39500D02*
X70500Y-45000D01*
X70500Y-45000D02*
X69500Y-46000D01*
X69500Y-46000D02*
X69500Y-48000D01*
X69500Y-48000D02*
X70000Y-48500D01*
X70500Y-37500D02*
X70500Y-39500D01*
X71500Y-36500D02*
X70500Y-37500D01*
X74000Y-36500D02*
X73500Y-36500D01*
X66000Y-47000D02*
X66000Y-48000D01*
X66000Y-48000D02*
X66500Y-48500D01*
X69500Y-44000D02*
X69000Y-44500D01*
X70000Y-50500D02*
X70000Y-51000D01*
X69000Y-49500D02*
X70000Y-50500D01*
X69000Y-44500D02*
X69000Y-49500D01*
X64000Y-49000D02*
X64000Y-48000D01*
X65000Y-45000D02*
X66000Y-45000D01*
X64500Y-45500D02*
X65000Y-45000D01*
X64500Y-47500D02*
X64500Y-45500D01*
X64000Y-48000D02*
X64500Y-47500D01*
X67000Y-44000D02*
X66000Y-44000D01*
X66000Y-38000D02*
X68000Y-38000D01*
X67000Y-51000D02*
X65000Y-51000D01*
X67500Y-51000D02*
X67000Y-51000D01*
X68500Y-50000D02*
X67500Y-51000D01*
X68500Y-38500D02*
X68500Y-50000D01*
X68000Y-38000D02*
X68500Y-38500D01*
X63000Y-39000D02*
X63500Y-39000D01*
X64000Y-43500D02*
X64500Y-44000D01*
X64500Y-44000D02*
X66000Y-44000D01*
X64000Y-39500D02*
X64000Y-43500D01*
X63500Y-39000D02*
X64000Y-39500D01*
X60500Y-39000D02*
X63000Y-39000D01*
X61500Y-38000D02*
X60000Y-38000D01*
X62000Y-51000D02*
X62000Y-49500D01*
X61500Y-38000D02*
X63000Y-38000D01*
X60000Y-47500D02*
X62000Y-49500D01*
X60000Y-41500D02*
X60000Y-47500D01*
X59500Y-41000D02*
X60000Y-41500D01*
X59500Y-38500D02*
X59500Y-41000D01*
X60000Y-38000D02*
X59500Y-38500D01*
X60000Y-49000D02*
X60000Y-51000D01*
X61000Y-47500D02*
X63000Y-49500D01*
X61000Y-40500D02*
X61500Y-40000D01*
X63000Y-40000D02*
X61500Y-40000D01*
X61000Y-43000D02*
X61000Y-47500D01*
X63000Y-49500D02*
X63000Y-51000D01*
X61000Y-43000D02*
X61000Y-40500D01*
X64000Y-51000D02*
X64000Y-50500D01*
X68000Y-40500D02*
X67500Y-40000D01*
X67500Y-40000D02*
X66000Y-40000D01*
X68000Y-42500D02*
X68000Y-47500D01*
X68000Y-42500D02*
X68000Y-40500D01*
X68000Y-48500D02*
X68000Y-47500D01*
X66500Y-50000D02*
X68000Y-48500D01*
X64500Y-50000D02*
X66500Y-50000D01*
X64000Y-50500D02*
X64500Y-50000D01*
X67000Y-47000D02*
X67000Y-46000D01*
X66000Y-46000D02*
X67000Y-46000D01*
X66000Y-45000D02*
X67000Y-45000D01*
X62000Y-46000D02*
X63000Y-46000D01*
X62000Y-44000D02*
X63000Y-44000D01*
X62000Y-42000D02*
X63000Y-42000D01*
X55000Y-46000D02*
X56500Y-46000D01*
X58000Y-43000D02*
X59000Y-42000D01*
X58000Y-44500D02*
X58000Y-43000D01*
X56500Y-46000D02*
X58000Y-44500D01*
X58500Y-37500D02*
X58500Y-40000D01*
X58500Y-37500D02*
X60000Y-36000D01*
X63000Y-36000D02*
X60000Y-36000D01*
X56500Y-45000D02*
X55000Y-45000D01*
X57000Y-44500D02*
X56500Y-45000D01*
X57000Y-41500D02*
X57000Y-44500D01*
X58500Y-40000D02*
X57000Y-41500D01*
X57500Y-39000D02*
X55000Y-39000D01*
X55000Y-47000D02*
X57000Y-47000D01*
X57000Y-47000D02*
X58000Y-46000D01*
X59000Y-44000D02*
X59000Y-46000D01*
X59000Y-46000D02*
X59000Y-51000D01*
X72000Y-41000D02*
X72500Y-41000D01*
X73000Y-40500D02*
X74000Y-40500D01*
X72500Y-41000D02*
X73000Y-40500D01*
X72000Y-42000D02*
X72500Y-42000D01*
X73000Y-41500D02*
X74000Y-41500D01*
X72500Y-42000D02*
X73000Y-41500D01*
X74000Y-43000D02*
X72000Y-43000D01*
X74000Y-44000D02*
X72000Y-44000D01*
X74000Y-45000D02*
X72000Y-45000D01*
X74000Y-46000D02*
X72000Y-46000D01*
X74000Y-47000D02*
X72000Y-47000D01*
X74000Y-48000D02*
X72000Y-48000D01*
X63000Y-44000D02*
X63000Y-45000D01*
X66000Y-41000D02*
X66000Y-42000D01*
X63000Y-41000D02*
X63000Y-42000D01*
X66000Y-36000D02*
X66000Y-37000D01*
X63000Y-36000D02*
X63000Y-37000D01*
M02*
