M48
;DRILL file {Pcbnew (2013-07-07 BZR 4022)-stable} date 17/05/2017 16:52:49
;FORMAT={-:-/ absolute / metric / decimal}
FMAT,2
METRIC,TZ
T1C0.762
T2C1.016
%
G90
G05
M71
T1
X146.05Y-99.06
X147.32Y-116.84
X149.86Y-106.68
X149.86Y-111.76
X152.4Y-124.46
X153.67Y-99.06
X157.48Y-106.68
X157.48Y-111.76
X157.48Y-116.84
X160.02Y-91.44
X160.02Y-93.98
X160.02Y-96.52
X160.02Y-99.06
X160.02Y-101.6
X160.02Y-104.14
X160.02Y-106.68
X160.02Y-111.76
X160.02Y-114.3
X160.02Y-116.84
X160.02Y-119.38
X162.56Y-124.46
X167.64Y-91.44
X167.64Y-93.98
X167.64Y-96.52
X167.64Y-99.06
X167.64Y-101.6
X167.64Y-104.14
X167.64Y-106.68
X167.64Y-111.76
X167.64Y-114.3
X167.64Y-116.84
X167.64Y-119.38
X168.91Y-123.19
X170.18Y-111.76
X170.18Y-114.3
X170.18Y-116.84
X170.18Y-119.38
X171.45Y-93.98
X171.45Y-99.06
X176.53Y-111.76
X177.8Y-123.19
X179.07Y-119.38
T2
X139.7Y-99.06
X139.7Y-101.6
X139.7Y-104.14
X139.7Y-114.3
X139.7Y-116.84
X139.7Y-119.38
X139.7Y-124.46
X139.7Y-127.
X149.86Y-129.54
X152.4Y-129.54
X157.48Y-129.54
X160.02Y-129.54
X162.56Y-129.54
X165.1Y-129.54
X175.26Y-129.54
X177.8Y-129.54
X180.34Y-129.54
X182.88Y-104.14
X182.88Y-106.68
X182.88Y-109.22
X182.88Y-111.76
X182.88Y-114.3
X182.88Y-116.84
X182.88Y-119.38
X182.88Y-121.92
X187.96Y-92.71
X187.96Y-95.25
X187.96Y-102.87
X187.96Y-105.41
X187.96Y-109.22
X187.96Y-111.76
X187.96Y-114.3
X187.96Y-116.84
X187.96Y-119.38
X187.96Y-121.92
X187.96Y-124.46
X187.96Y-127.
T0
M30
